<?xml version="1.0" standalone="no"?>
<!DOCTYPE svg PUBLIC "-//W3C//DTD SVG 20010904//EN"
 "http://www.w3.org/TR/2001/REC-SVG-20010904/DTD/svg10.dtd">
<svg version="1.0" xmlns="http://www.w3.org/2000/svg"
 width="500.000000pt" height="500.000000pt" viewBox="0 0 500.000000 500.000000"
 preserveAspectRatio="xMidYMid meet">

<g transform="translate(0.000000,500.000000) scale(0.100000,-0.100000)"
fill="#fffffff" stroke="none">
<path d="M3485 4260 c-21 -16 -49 -30 -62 -30 -64 0 -97 -94 -48 -140 16 -15
25 -34 25 -53 0 -20 11 -40 34 -63 44 -44 87 -46 143 -5 22 16 54 36 72 45 63
33 65 89 6 155 -19 21 -35 46 -35 55 0 25 -46 66 -73 66 -13 0 -41 -13 -62
-30z m65 -75 c0 -7 12 -28 27 -45 l26 -32 -43 -39 c-23 -21 -46 -39 -51 -39
-4 0 -13 18 -19 40 -6 23 -21 47 -35 56 -34 22 -31 32 14 44 21 5 44 17 51 25
14 16 30 11 30 -10z"/>
<path d="M1567 4198 c-27 -29 -57 -49 -84 -57 -50 -14 -73 -42 -73 -89 0 -40
12 -64 59 -119 20 -23 46 -55 59 -72 13 -17 34 -34 47 -37 30 -7 78 18 105 56
12 17 36 38 53 46 53 27 77 55 77 88 0 37 -5 44 -51 79 -25 19 -39 39 -43 61
-7 38 -39 72 -79 81 -24 6 -34 1 -70 -37z m84 -78 c8 -25 25 -50 46 -66 18
-14 33 -29 33 -34 0 -6 -19 -19 -43 -30 -24 -11 -51 -34 -60 -50 -23 -39 -43
-38 -61 3 -7 17 -30 47 -50 65 -20 18 -36 39 -36 46 0 8 22 22 50 31 32 10 57
27 71 46 11 16 24 29 29 29 5 0 15 -18 21 -40z"/>
<path d="M2370 4065 c-107 -15 -193 -40 -313 -91 -370 -156 -639 -440 -772
-814 -67 -188 -90 -339 -82 -535 7 -172 38 -313 103 -469 25 -61 48 -118 50
-126 4 -11 -72 -115 -131 -178 -1 -1 -15 2 -31 9 -54 20 -179 40 -217 33 -22
-3 -57 -21 -82 -42 -25 -21 -57 -47 -72 -59 l-28 -21 3 -329 c3 -291 5 -332
21 -363 54 -106 239 -129 333 -41 21 20 45 54 52 76 20 58 46 58 80 1 30 -51
77 -91 156 -132 52 -27 62 -28 180 -29 79 0 133 4 146 12 28 16 112 -24 137
-66 39 -67 136 -122 270 -154 83 -19 121 -21 377 -21 257 -1 295 2 384 21 122
27 211 69 270 128 26 27 54 45 67 45 13 0 48 5 78 10 31 6 140 24 243 41 103
16 203 36 222 44 19 8 44 30 56 50 12 19 23 35 26 35 2 0 23 -13 46 -30 89
-62 236 -54 300 17 44 48 60 144 38 225 -6 21 -35 69 -64 108 l-54 70 48 73
c26 39 53 89 60 110 22 70 -10 149 -73 178 -23 11 -57 31 -76 45 -66 47 -161
28 -224 -46 -20 -24 -37 -39 -37 -32 0 6 -27 51 -60 100 l-60 89 49 109 c48
108 90 265 111 409 32 229 -12 528 -111 749 l-50 114 27 41 c17 26 29 60 32
90 l4 48 58 6 c109 10 189 70 216 165 44 151 -46 289 -196 300 -68 5 -113 -8
-168 -48 -53 -38 -95 -125 -94 -196 l0 -51 -76 -6 -77 -6 -75 58 c-305 234
-650 327 -1020 276z m1590 -152 c14 -15 29 -37 33 -48 6 -17 5 -18 -5 -5 -24
29 -76 60 -101 60 -27 0 -71 -31 -88 -62 -16 -30 -20 -66 -9 -73 20 -12 -1
-25 -22 -14 -11 6 -33 8 -49 5 -28 -5 -29 -4 -29 30 0 72 50 132 128 153 38
11 111 -13 142 -46z m-1250 -8 c201 -31 372 -98 518 -202 l64 -45 -26 -13
c-24 -13 -33 -9 -137 51 -170 99 -321 144 -485 144 -103 0 -163 -17 -284 -79
-122 -63 -160 -87 -153 -95 5 -4 3 -6 -3 -4 -20 6 -116 -65 -223 -165 -58 -55
-105 -104 -104 -109 2 -4 -1 -7 -7 -5 -5 1 -39 -24 -74 -57 l-66 -59 31 -27
c28 -24 31 -31 25 -63 -4 -24 -14 -38 -27 -42 -17 -6 -18 -9 -7 -23 7 -9 -6
-2 -29 17 -40 30 -51 54 -44 94 2 10 -9 4 -63 -35 -21 -15 -35 -28 -30 -28 5
0 -4 -7 -20 -15 -15 -8 -32 -13 -36 -10 -5 3 -15 -2 -23 -10 -9 -8 -20 -15
-25 -15 -6 0 -12 -3 -15 -7 -2 -5 -2 -2 0 6 2 8 -2 11 -13 7 -22 -9 -12 20 52
143 72 137 99 174 201 282 192 201 433 326 703 364 128 18 187 18 300 0z
m1046 -179 c17 -14 18 -16 3 -31 -13 -13 -20 -14 -42 -4 -31 14 -34 24 -9 38
23 14 25 13 48 -3z m-86 -47 c10 -5 -4 -8 -40 -9 -158 -1 -435 -139 -569 -285
-32 -34 -41 -40 -35 -23 12 38 33 64 87 111 137 116 273 185 428 216 46 10
103 5 129 -10z m-20 -107 c0 -84 -369 -292 -517 -292 -48 0 -56 6 -41 34 53
104 343 276 488 288 55 5 70 -1 70 -30z m61 -44 c-25 -65 -135 -155 -276 -226
-122 -62 -168 -74 -285 -78 l-105 -3 80 9 c84 9 191 43 286 90 106 54 232 147
269 198 36 51 48 54 31 10z m-1328 -49 c6 -9 7 -24 2 -35 -4 -11 -8 -22 -7
-26 2 -11 -47 -2 -63 12 -13 11 -15 34 -6 68 3 11 66 -6 74 -19z m-231 -62
c23 -4 51 -34 73 -77 22 -42 16 -131 -10 -160 -10 -11 -15 -20 -10 -20 4 0
-11 -15 -35 -33 -40 -31 -46 -32 -106 -27 -52 4 -68 10 -93 34 -17 16 -36 45
-42 64 -15 44 -7 127 15 150 9 10 14 22 11 25 -3 4 -2 5 1 3 3 -3 16 4 27 15
37 35 88 42 169 26z m1508 -90 c0 -17 -15 -31 -57 -57 -32 -19 -62 -37 -68
-39 -5 -2 -27 -15 -48 -28 -37 -23 -57 -23 -57 0 0 7 30 28 66 47 37 19 87 49
113 67 25 18 47 32 49 32 1 1 2 -9 2 -22z m-655 -147 c10 -11 16 -20 13 -20
-3 0 -13 9 -23 20 -10 11 -16 20 -13 20 3 0 13 -9 23 -20z m370 0 c13 -14 15
-23 7 -33 -8 -9 -8 -17 0 -27 8 -12 9 -12 4 2 -7 23 9 32 24 14 9 -12 7 -17
-9 -25 -23 -13 -54 -4 -44 13 4 6 -1 5 -10 -3 -9 -7 -14 -18 -11 -23 4 -6 -1
-6 -13 0 -16 9 -23 6 -38 -14 -10 -14 -24 -23 -31 -20 -9 3 -11 -1 -7 -11 5
-12 2 -15 -10 -10 -9 3 -17 2 -17 -4 0 -6 -4 -7 -10 -4 -5 3 -15 -3 -22 -14
-9 -15 -16 -17 -25 -9 -9 7 -17 5 -30 -7 -16 -17 -17 -16 -23 1 -11 29 0 52
38 84 33 27 184 110 201 110 4 0 16 -9 26 -20z m309 -120 c38 -116 59 -252 54
-348 -3 -62 -3 -63 -23 -47 -11 9 -15 14 -8 11 6 -4 14 -2 18 3 3 6 -5 8 -18
5 -45 -8 -54 19 -60 166 -5 128 -24 220 -56 278 -7 12 -3 20 17 33 15 9 30 14
34 10 4 -3 23 -53 42 -111z m-2234 26 c0 -3 -4 -8 -10 -11 -5 -3 -10 -1 -10 4
0 6 5 11 10 11 6 0 10 -2 10 -4z m1188 -71 c94 -40 146 -142 121 -241 -25 -97
-139 -175 -231 -157 -42 8 -98 36 -120 60 -29 31 -58 106 -58 149 0 51 42 137
81 165 57 41 143 50 207 24z m427 -331 c55 -9 155 -34 222 -55 114 -36 313
-127 358 -164 11 -9 -8 -2 -43 15 -64 31 -82 32 -82 2 0 -33 -107 -237 -155
-297 -123 -154 -229 -239 -398 -321 -137 -65 -187 -76 -383 -81 -152 -5 -180
-3 -260 17 -149 36 -307 119 -449 232 l-59 48 -55 -54 -54 -54 34 -43 c19 -24
61 -71 95 -105 l61 -62 -37 -25 -38 -24 -55 47 c-115 98 -196 206 -272 365
-68 141 -69 133 17 204 88 75 261 177 380 225 128 51 321 101 327 84 12 -35
119 -131 180 -161 60 -29 74 -32 161 -32 83 0 103 4 155 28 72 33 166 129 190
192 13 34 21 41 38 39 12 -2 67 -11 122 -20z m-1636 -785 c17 -28 31 -53 31
-56 0 -3 -17 -25 -38 -47 l-39 -42 -43 37 c-23 20 -38 39 -32 43 5 3 26 31 47
61 20 30 37 55 39 55 2 0 17 -23 35 -51z m2290 -5 c26 -43 26 -47 4 -40 -10 3
-35 2 -55 -3 l-37 -9 30 44 c16 24 32 44 33 44 2 0 13 -16 25 -36z m355 -77
c36 -27 21 -64 -89 -219 l-55 -77 96 -120 c73 -92 94 -126 89 -141 -18 -56
-103 -46 -151 18 -16 20 -44 54 -63 75 l-34 37 -64 -92 c-35 -51 -75 -99 -89
-106 -32 -17 -74 -12 -88 11 -13 21 9 63 102 197 l64 91 -46 52 c-26 29 -65
76 -88 106 -40 51 -41 54 -27 80 15 27 51 38 95 27 12 -3 44 -33 70 -66 26
-33 50 -60 53 -60 3 0 28 34 55 75 74 114 123 146 170 112z m-2941 -37 c113
-25 163 -57 200 -129 45 -90 34 -206 -27 -267 -37 -37 -124 -60 -192 -49 l-44
6 0 -53 c0 -71 -19 -98 -69 -98 -20 0 -42 5 -49 12 -17 17 -17 569 0 586 17
17 80 14 181 -8z m2452 -84 c19 -29 11 -70 -17 -90 -11 -8 -74 -22 -139 -32
l-119 -18 0 -44 0 -44 75 7 c85 8 105 0 105 -46 0 -46 -28 -65 -109 -73 l-71
-7 0 -45 c0 -52 -1 -52 134 -28 104 18 133 13 147 -23 12 -32 -4 -80 -30 -87
-9 -3 -91 -15 -183 -27 -135 -17 -171 -19 -183 -9 -22 18 -22 511 -1 529 8 7
58 18 112 26 55 9 119 19 144 24 84 17 118 13 135 -13z m-1907 -22 c50 -20 88
-59 120 -119 23 -43 27 -63 27 -136 0 -76 -3 -92 -31 -145 -93 -178 -328 -150
-400 48 -21 58 -21 182 0 233 47 111 175 165 284 119z m304 -21 c15 -13 18
-31 18 -102 l0 -86 88 88 c78 78 91 87 124 87 35 0 68 -20 68 -42 0 -5 -39
-53 -87 -105 -84 -92 -87 -96 -73 -119 8 -13 48 -71 88 -129 39 -59 72 -114
72 -124 0 -26 -21 -41 -58 -41 -40 0 -75 33 -148 142 -25 38 -51 67 -57 65 -7
-2 -14 -35 -17 -81 -5 -82 -14 -96 -59 -96 -14 0 -33 7 -43 17 -16 15 -18 37
-18 264 0 212 2 250 16 263 20 21 63 20 86 -1z m991 -42 c157 -71 203 -274 96
-419 -54 -73 -149 -112 -274 -112 -43 0 -56 4 -65 19 -6 12 -10 113 -10 258 0
251 2 265 45 277 39 10 167 -4 208 -23z m-305 3 c25 -18 29 -60 8 -90 -12 -16
-29 -19 -125 -22 l-111 -4 0 -44 0 -44 74 0 c83 0 99 -10 99 -62 0 -44 -25
-58 -105 -58 l-68 0 0 -45 0 -45 107 0 c121 0 143 -10 143 -66 0 -56 -23 -64
-185 -64 -202 0 -185 -26 -185 285 0 231 2 255 18 264 9 6 82 11 162 11 116 0
150 -3 168 -16z m-621 -611 c-4 -3 1 -12 11 -20 15 -13 15 -13 -6 -3 -19 9
-23 30 -5 30 4 0 3 -3 0 -7z m992 -42 c-10 -15 -16 -17 -27 -9 -11 10 -9 14
10 24 29 15 33 12 17 -15z m-39 -16 c11 -13 10 -14 -5 -9 -13 5 -16 4 -11 -4
4 -7 3 -12 -3 -12 -5 0 -12 4 -15 9 -3 4 -18 7 -33 4 -28 -3 -28 -3 -4 7 14 6
31 8 38 6 7 -3 13 -1 13 4 0 14 6 12 20 -5z m-161 -19 c-2 -2 -22 -6 -44 -9
-27 -4 -35 -3 -25 3 14 9 79 15 69 6z m121 -6 c0 -5 -8 -10 -17 -10 -15 0 -16
2 -3 10 19 12 20 12 20 0z"/>
<path d="M3329 2424 c-11 -14 -10 -18 5 -30 13 -9 24 -10 37 -3 22 11 24 20 7
37 -16 16 -33 15 -49 -4z"/>
<path d="M3197 2343 c-29 -34 -26 -76 8 -91 21 -10 28 -9 45 8 25 25 25 55 0
80 -25 25 -33 25 -53 3z"/>
<path d="M3021 2194 c-25 -32 -26 -43 -5 -72 21 -30 76 -30 104 0 11 12 20 26
20 31 0 13 -22 51 -34 59 -24 17 -65 8 -85 -18z"/>
<path d="M1724 2185 c-4 -9 -2 -21 4 -27 15 -15 44 -1 40 19 -4 23 -36 29 -44
8z"/>
<path d="M1070 1560 l0 -100 45 0 c55 0 90 15 104 46 24 55 -17 124 -85 143
-66 18 -64 21 -64 -89z"/>
<path d="M1541 1534 c-43 -55 -39 -168 9 -216 72 -72 162 10 145 133 -10 69
-44 109 -95 109 -29 0 -43 -6 -59 -26z"/>
<path d="M2850 1365 l0 -145 26 0 c80 0 133 73 120 164 -11 68 -68 126 -126
126 -19 0 -20 -5 -20 -145z"/>
<path d="M972 4007 c-15 -17 1 -42 23 -33 18 6 17 37 -1 43 -6 2 -16 -2 -22
-10z"/>
<path d="M1192 3820 c-12 -12 -22 -25 -22 -30 0 -5 -20 -32 -45 -60 -25 -28
-45 -57 -45 -65 0 -37 22 -67 64 -86 24 -10 60 -35 79 -54 52 -52 103 -45 127
17 7 18 31 50 52 71 60 60 51 105 -31 146 -24 13 -55 36 -68 52 -30 35 -78 39
-111 9z m147 -125 c28 -9 26 -20 -8 -44 -16 -12 -32 -32 -35 -46 -8 -31 -16
-31 -46 0 -12 13 -38 29 -56 35 -19 7 -34 15 -34 19 0 4 14 20 31 37 17 16 35
40 40 53 l9 23 39 -35 c21 -19 48 -38 60 -42z"/>
<path d="M935 3505 c-14 -13 -25 -32 -25 -42 0 -11 -20 -36 -45 -56 -35 -30
-45 -45 -45 -68 0 -45 15 -65 62 -84 23 -9 56 -33 74 -53 41 -47 94 -51 130
-8 13 15 24 36 24 46 0 10 18 40 40 65 22 25 40 55 40 66 0 27 -53 79 -80 79
-11 0 -38 18 -60 40 -46 47 -79 51 -115 15z m23 -125 c-7 -10 -14 -17 -17 -15
-4 4 18 35 25 35 2 0 -1 -9 -8 -20z"/>
<path d="M3981 3422 c-70 -66 -78 -98 -36 -135 14 -12 40 -37 57 -54 18 -19
42 -33 55 -33 26 0 143 109 143 134 0 26 -22 65 -40 71 -10 3 -31 21 -49 40
-17 19 -40 35 -51 35 -10 0 -46 -26 -79 -58z m113 -47 l37 -35 -30 -26 c-17
-14 -31 -32 -31 -41 0 -9 -12 -1 -32 20 -18 19 -40 37 -48 40 -13 6 -13 8 0
14 8 3 26 19 40 34 14 16 25 28 26 29 1 0 18 -16 38 -35z"/>
<path d="M4097 3108 c-22 -24 -59 -52 -81 -63 -49 -24 -73 -66 -60 -104 5 -14
28 -39 51 -56 29 -20 46 -42 53 -67 26 -89 115 -91 170 -4 11 19 36 43 55 54
77 46 84 114 15 157 -21 13 -48 42 -60 64 -22 38 -54 61 -87 61 -9 0 -34 -19
-56 -42z m90 -78 c10 -17 34 -40 53 -52 33 -19 34 -21 15 -32 -26 -14 -76 -65
-97 -96 l-16 -25 -16 37 c-9 21 -32 52 -51 69 -19 18 -35 36 -35 40 0 5 17 17
38 28 20 10 46 28 56 40 25 28 32 27 53 -9z"/>
<path d="M953 3020 c-12 -5 -25 -20 -29 -34 -3 -14 -21 -37 -40 -51 -52 -40
-44 -107 15 -118 20 -4 35 -17 46 -37 27 -53 89 -49 119 8 8 15 26 38 40 51
46 43 26 111 -38 127 -14 3 -28 15 -31 26 -5 15 -46 41 -58 37 -1 0 -12 -4
-24 -9z m82 -115 l23 -10 -33 -38 -33 -38 -26 25 c-14 15 -33 26 -43 26 -15 1
-13 5 8 23 15 12 30 33 34 46 l8 25 19 -24 c11 -14 31 -29 43 -35z"/>
<path d="M4058 2433 c-25 -29 -38 -60 -38 -92 0 -26 -7 -34 -40 -51 -40 -20
-70 -63 -70 -99 0 -32 47 -78 100 -97 27 -10 52 -26 55 -35 4 -10 19 -32 35
-48 58 -63 158 -31 174 54 5 26 17 42 46 61 97 65 91 137 -16 188 -34 16 -78
49 -108 82 -44 46 -57 54 -87 54 -22 0 -42 -7 -51 -17z m104 -112 c18 -25 47
-48 83 -65 30 -14 55 -30 55 -36 0 -6 -16 -20 -35 -32 -22 -13 -45 -39 -61
-69 -13 -27 -30 -49 -37 -49 -8 0 -28 17 -45 39 -17 21 -52 48 -78 60 l-47 22
45 42 c30 28 48 54 53 77 13 64 28 66 67 11z"/>
<path d="M918 2388 c-9 -7 -27 -31 -40 -53 -18 -28 -37 -44 -64 -54 -112 -39
-114 -137 -3 -186 32 -15 46 -29 60 -62 38 -89 140 -94 185 -8 12 24 36 49 60
62 112 63 111 147 -3 197 -18 8 -39 29 -49 48 -28 56 -44 68 -89 68 -22 0 -48
-6 -57 -12z m9 -136 c-10 -10 -14 -22 -10 -27 5 -4 2 -5 -5 -1 -11 6 -10 12 4
27 9 10 19 19 22 19 3 0 -2 -8 -11 -18z"/>
</g>
</svg>
