<?xml version="1.0" standalone="no"?>
<!DOCTYPE svg PUBLIC "-//W3C//DTD SVG 20010904//EN"
 "http://www.w3.org/TR/2001/REC-SVG-20010904/DTD/svg10.dtd">
<svg version="1.0" xmlns="http://www.w3.org/2000/svg"
 width="512.000000pt" height="512.000000pt" viewBox="0 0 512.000000 512.000000"
 preserveAspectRatio="xMidYMid meet">

<g transform="translate(0.000000,512.000000) scale(0.100000,-0.100000)"
fill="#000000" stroke="none">
<path d="M776 4045 c-46 -16 -99 -65 -121 -112 -19 -38 -22 -124 -6 -165 5
-15 26 -45 46 -67 69 -77 -76 -71 1858 -71 1267 0 1740 3 1768 11 159 48 202
255 75 367 -20 17 -52 36 -73 41 -26 8 -592 11 -1773 11 -1450 -1 -1741 -3
-1774 -15z"/>
<path d="M776 2765 c-46 -16 -99 -65 -121 -112 -19 -38 -22 -124 -6 -165 5
-15 26 -45 46 -67 69 -77 -76 -71 1858 -71 1267 0 1740 3 1768 11 159 48 202
255 75 367 -20 17 -52 36 -73 41 -26 8 -592 11 -1773 11 -1450 -1 -1741 -3
-1774 -15z"/>
<path d="M776 1485 c-46 -16 -99 -65 -121 -112 -19 -38 -22 -124 -6 -165 5
-15 26 -45 46 -67 69 -77 -76 -71 1858 -71 1267 0 1740 3 1768 11 159 48 202
255 75 367 -20 17 -52 36 -73 41 -26 8 -592 11 -1773 11 -1450 -1 -1741 -3
-1774 -15z"/>
</g>
</svg>
